<?xml version="1.0" encoding="UTF-8"?>
<svg id="Layer_1" data-name="Layer 1" xmlns="http://www.w3.org/2000/svg" viewBox="0 0 1080 1068">
  <defs>
    <style>
      .cls-1 {
        fill: #0885b7;
      }

      .cls-2 {
        fill: #fff;
      }

      .cls-3 {
        fill: #e27f07;
      }
    </style>
  </defs>
  <rect class="cls-2" x="-42" y="-29" width="1163" height="1163"/>
  <g>
    <path class="cls-1" d="M555.38,454.32c4.03,4.07,6.04,9.88,6.04,17.41,0,2.89-.22,5.57-.66,8.02l-7.49,42.32h-18.53l7.23-40.21c.26-1.58.39-3.11.39-4.6,0-4.38-1.23-7.75-3.68-10.12-2.45-2.37-5.87-3.55-10.25-3.55-5.26,0-9.77,1.71-13.54,5.13-3.77,3.42-6.18,8.32-7.23,14.72v-.53l-6.83,39.16h-18.66l12.88-72.81h18.53l-2.5,14.59c2.8-4.91,6.64-8.74,11.5-11.5,4.86-2.76,10.18-4.14,15.97-4.14,7.18,0,12.79,2.04,16.82,6.11Z"/>
    <path class="cls-1" d="M626.54,454.97c5.13,4.43,7.91,10.4,8.35,17.94h-18.14c-.09-3.59-1.36-6.42-3.81-8.48-2.45-2.06-5.91-3.09-10.38-3.09-3.33,0-6.02.75-8.08,2.23-2.06,1.49-3.09,3.51-3.09,6.05s1.25,4.47,3.75,5.78c2.5,1.31,6.37,2.67,11.63,4.07,5.08,1.49,9.22,2.91,12.42,4.27,3.2,1.36,5.96,3.35,8.28,5.98,2.32,2.63,3.48,6.09,3.48,10.38,0,1.67-.18,3.33-.53,4.99-1.05,5.35-4.07,9.66-9.07,12.94-4.99,3.29-11.65,4.93-19.98,4.93-9.55,0-17.19-2.17-22.93-6.51-5.74-4.34-8.7-10.36-8.87-18.07h18.14c-.26,3.5.99,6.31,3.75,8.41,2.76,2.1,6.59,3.15,11.5,3.15,3.5,0,6.18-.79,8.02-2.37,1.84-1.58,2.76-3.59,2.76-6.04,0-1.93-.68-3.53-2.04-4.8-1.36-1.27-3.04-2.28-5.06-3.02-2.02-.74-4.91-1.64-8.67-2.69-4.99-1.4-9.02-2.74-12.09-4.01-3.07-1.27-5.7-3.17-7.89-5.72-2.19-2.54-3.29-5.87-3.29-9.99,0-1.49.13-3.07.39-4.73.96-5.43,3.96-9.83,9-13.21,5.04-3.37,11.72-5.06,20.04-5.06,9.81,0,17.28,2.21,22.41,6.64Z"/>
    <path class="cls-1" d="M721.36,449.26l-12.75,72.81h-18.66l2.63-14.46c-2.89,4.82-6.77,8.59-11.63,11.3-4.86,2.72-10.18,4.07-15.97,4.07-7.1,0-12.68-2.01-16.76-6.05-4.07-4.03-6.11-9.77-6.11-17.22,0-2.54.26-5.26.79-8.15l7.49-42.32h18.4l-7.1,40.21c-.26,1.67-.39,3.24-.39,4.73,0,4.38,1.23,7.73,3.68,10.05,2.45,2.32,5.87,3.48,10.25,3.48,5.17,0,9.61-1.64,13.34-4.93,3.72-3.29,6.15-8.04,7.29-14.26l6.97-39.29h18.53Z"/>
    <path class="cls-3" d="M766.76,452.21c4.95-2.67,10.23-4.01,15.84-4.01l-3.55,19.84h-5.39c-13.58,0-21.47,6.31-23.66,18.92l-6.18,35.09h-18.66l12.88-72.81h18.53l-2.5,13.93c3.5-4.64,7.73-8.3,12.68-10.97Z"/>
    <path class="cls-3" d="M836.42,452.74c3.99,2.94,6.46,6.81,7.43,11.63l2.76-15.11h18.4l-12.88,72.81h-18.4l2.76-15.24c-2.72,4.91-6.53,8.83-11.43,11.76-4.91,2.94-10.43,4.4-16.56,4.4-8.24,0-14.72-2.54-19.45-7.62-4.73-5.08-7.1-12.13-7.1-21.16,0-3.42.31-6.79.92-10.12,1.31-7.27,3.81-13.62,7.49-19.06,3.68-5.43,8.17-9.57,13.47-12.42,5.3-2.85,10.97-4.27,17.02-4.27,6.39,0,11.59,1.47,15.57,4.4ZM809.67,470.15c-4.21,3.77-6.88,8.94-8.02,15.51-.35,2.45-.53,4.16-.53,5.13,0,4.99,1.42,8.89,4.27,11.7,2.85,2.8,6.77,4.2,11.76,4.2,5.61,0,10.56-1.91,14.85-5.72,4.29-3.81,7.01-8.91,8.15-15.31.35-2.28.53-3.94.53-4.99,0-4.99-1.47-8.94-4.4-11.83-2.94-2.89-6.81-4.34-11.63-4.34-5.78,0-10.78,1.88-14.98,5.65Z"/>
    <path class="cls-3" d="M894.3,496.7c-.18.79-.26,1.84-.26,3.15,0,2.37.61,4.01,1.84,4.93,1.23.92,3.24,1.38,6.04,1.38h7.23l-2.89,15.9h-9.72c-6.92,0-12.22-1.4-15.9-4.21-3.68-2.8-5.52-7.4-5.52-13.8,0-2.37.26-4.91.79-7.62l5.52-31.54h-10.12l2.76-15.64h10.12l3.15-18h18.66l-3.15,18h16.03l-2.76,15.64h-16.16l-5.65,31.8Z"/>
    <path class="cls-3" d="M994.31,454.19c4.03,3.99,6.05,9.7,6.05,17.15,0,2.54-.26,5.35-.79,8.41l-7.36,42.32h-18.4l7.1-40.21c.26-1.75.39-3.33.39-4.73,0-4.38-1.23-7.73-3.68-10.05-2.45-2.32-5.83-3.48-10.12-3.48-4.99,0-9.31,1.51-12.94,4.53-3.64,3.02-6.16,7.38-7.56,13.08l-7.23,40.87h-18.53l17.09-97.25h18.53l-6.83,38.9c2.89-4.91,6.77-8.72,11.63-11.43,4.86-2.71,10.18-4.07,15.97-4.07,7.1,0,12.66,1.99,16.69,5.98Z"/>
  </g>
  <g>
    <path class="cls-1" d="M628.96,559.29c-.62.89-1.48,1.62-2.58,2.18-1.1.57-2.4.85-3.9.85s-2.92-.3-4.04-.9c-1.12-.6-1.96-1.38-2.51-2.36-.55-.97-.81-2-.76-3.08h1.63c-.02.76.14,1.53.5,2.3.36.77.97,1.43,1.85,1.96.88.53,2.02.8,3.43.8,1.64,0,2.97-.44,4-1.32s1.66-1.99,1.89-3.33c.07-.46.1-.88.1-1.25,0-1.04-.25-1.88-.75-2.53-.5-.65-1.11-1.15-1.83-1.51-.73-.36-1.71-.76-2.96-1.2-1.32-.46-2.36-.88-3.13-1.26-.77-.38-1.43-.93-1.96-1.66-.53-.73-.8-1.67-.8-2.82,0-.53.05-1.04.14-1.52.28-1.55,1.09-2.81,2.43-3.78,1.34-.97,3.05-1.45,5.13-1.45,1.52,0,2.81.27,3.84.8s1.82,1.22,2.34,2.08.8,1.75.85,2.7h-1.63c-.05-.65-.25-1.3-.62-1.96-.37-.66-.96-1.21-1.77-1.66-.81-.45-1.85-.68-3.12-.68-1.52,0-2.81.36-3.86,1.07-1.05.72-1.69,1.72-1.92,3.01-.07.42-.1.8-.1,1.14,0,.97.24,1.76.73,2.36.48.6,1.08,1.07,1.78,1.42.7.35,1.66.73,2.86,1.14,1.32.44,2.38.87,3.19,1.28.81.42,1.49,1,2.04,1.77.55.76.83,1.76.83,2.98,0,.53-.05,1.06-.14,1.59-.16.99-.55,1.93-1.18,2.82Z"/>
    <path class="cls-1" d="M653.21,543.27l-3.36,18.81h-1.56l.87-4.92c-.79,1.73-1.91,3.05-3.36,3.95-1.45.9-3.04,1.35-4.74,1.35-1.89,0-3.41-.51-4.54-1.54-1.13-1.03-1.7-2.56-1.7-4.59,0-.65.07-1.35.21-2.11l1.97-10.95h1.52l-1.94,10.91c-.12.74-.17,1.35-.17,1.84,0,1.66.47,2.93,1.4,3.79.93.87,2.23,1.3,3.9,1.3,2.05,0,3.81-.66,5.26-1.99,1.45-1.33,2.41-3.29,2.88-5.87l1.77-9.98h1.59Z"/>
    <path class="cls-1" d="M662.7,544.05c1.36-.77,3-1.16,4.92-1.16l-.31,1.7h-.55c-1.89,0-3.58.53-5.06,1.59-1.48,1.06-2.43,2.78-2.84,5.16l-1.91,10.74h-1.56l3.33-18.81h1.56l-.73,4.16c.74-1.48,1.79-2.6,3.15-3.38Z"/>
    <path class="cls-1" d="M684.04,544.64c1.22,1.07,1.94,2.49,2.15,4.24l1-5.61h1.53l-3.33,18.81h-1.56l1-5.61c-.79,1.76-1.99,3.17-3.6,4.24-1.62,1.07-3.45,1.61-5.51,1.61-2.31,0-4.13-.66-5.47-1.98-1.34-1.32-2.01-3.14-2.01-5.47,0-.74.07-1.5.21-2.29.35-1.94,1.03-3.63,2.04-5.07,1.02-1.44,2.27-2.55,3.76-3.33,1.49-.77,3.11-1.16,4.87-1.16,2.06,0,3.69.54,4.92,1.61ZM673.2,546.63c-1.66,1.48-2.71,3.49-3.15,6.03-.12.58-.17,1.25-.17,2.01,0,1.96.56,3.5,1.7,4.61s2.71,1.66,4.75,1.66c1.48,0,2.86-.34,4.16-1.02,1.29-.68,2.38-1.65,3.27-2.91.89-1.26,1.48-2.71,1.78-4.35.12-.69.17-1.3.17-1.84,0-1.96-.59-3.52-1.77-4.68-1.18-1.15-2.75-1.73-4.71-1.73-2.36,0-4.36.74-6.03,2.22Z"/>
    <path class="cls-1" d="M694.78,552.52l7.45,9.56h-2.04l-6.62-8.76-1.52,8.76h-1.56l4.5-25.63h1.56l-2.67,15.21,9.46-8.38h2.01l-10.56,9.25Z"/>
    <path class="cls-1" d="M718.59,544.61c1.14,1.05,1.68,2.49,1.61,4.31h-1.52c.07-1.34-.34-2.45-1.21-3.34-.88-.89-2.23-1.33-4.05-1.33-1.43,0-2.57.37-3.41,1.11s-1.26,1.7-1.26,2.87c0,.74.21,1.34.62,1.8.42.46.93.82,1.54,1.07.61.25,1.45.53,2.51.83,1.22.35,2.2.69,2.94,1.02.74.34,1.37.81,1.89,1.44.52.62.78,1.45.78,2.49,0,.21-.05.64-.14,1.28-.23,1.25-.88,2.25-1.94,3.01s-2.44,1.14-4.12,1.14c-2.26,0-4.04-.53-5.32-1.58-1.28-1.05-1.89-2.49-1.82-4.31h1.56c-.12,1.34.32,2.45,1.3,3.34.98.89,2.48,1.33,4.49,1.33,1.2,0,2.19-.28,2.96-.85.77-.57,1.24-1.3,1.4-2.2.05-.21.07-.51.07-.9,0-.83-.23-1.51-.68-2.04s-1-.94-1.66-1.21c-.66-.28-1.53-.56-2.62-.87-1.18-.35-2.11-.67-2.79-.97-.68-.3-1.26-.74-1.75-1.32-.49-.58-.73-1.34-.73-2.29,0-.35.03-.73.1-1.14.23-1.32.9-2.36,2.01-3.13,1.11-.77,2.52-1.16,4.23-1.16,2.19,0,3.86.52,5.01,1.58Z"/>
    <path class="cls-1" d="M739.15,544.4c1.13,1,1.7,2.51,1.7,4.52,0,.65-.07,1.37-.21,2.18l-1.91,10.98h-1.52l1.91-10.91c.11-.74.17-1.35.17-1.84,0-1.66-.47-2.93-1.4-3.81-.93-.88-2.23-1.32-3.9-1.32-2.03,0-3.78.66-5.25,1.99s-2.43,3.28-2.89,5.87v-.04l-1.77,10.05h-1.56l4.5-25.63h1.56l-2.08,11.81c.78-1.78,1.91-3.12,3.38-4.02s3.05-1.35,4.76-1.35c1.87,0,3.37.5,4.5,1.51Z"/>
    <path class="cls-1" d="M760.41,544.64c1.22,1.07,1.94,2.49,2.15,4.24l1-5.61h1.53l-3.33,18.81h-1.56l1-5.61c-.79,1.76-1.99,3.17-3.6,4.24-1.62,1.07-3.45,1.61-5.51,1.61-2.31,0-4.13-.66-5.47-1.98-1.34-1.32-2.01-3.14-2.01-5.47,0-.74.07-1.5.21-2.29.35-1.94,1.03-3.63,2.04-5.07,1.02-1.44,2.27-2.55,3.76-3.33,1.49-.77,3.11-1.16,4.87-1.16,2.06,0,3.69.54,4.92,1.61ZM749.57,546.63c-1.66,1.48-2.71,3.49-3.15,6.03-.12.58-.17,1.25-.17,2.01,0,1.96.56,3.5,1.7,4.61s2.71,1.66,4.75,1.66c1.48,0,2.86-.34,4.16-1.02,1.29-.68,2.38-1.65,3.27-2.91.89-1.26,1.48-2.71,1.78-4.35.12-.69.17-1.3.17-1.84,0-1.96-.59-3.52-1.77-4.68-1.18-1.15-2.75-1.73-4.71-1.73-2.36,0-4.36.74-6.03,2.22Z"/>
    <path class="cls-1" d="M793.6,544.4c1.13,1,1.7,2.51,1.7,4.52,0,.65-.07,1.37-.21,2.18l-1.91,10.98h-1.52l1.91-10.91c.11-.74.17-1.35.17-1.84,0-1.66-.47-2.93-1.4-3.81-.93-.88-2.23-1.32-3.9-1.32-2.03,0-3.78.66-5.25,1.99s-2.43,3.28-2.89,5.87v-.04l-1.77,10.05h-1.56l4.5-25.63h1.56l-2.08,11.81c.78-1.78,1.91-3.12,3.38-4.02s3.05-1.35,4.76-1.35c1.87,0,3.37.5,4.5,1.51Z"/>
    <path class="cls-1" d="M814.86,544.64c1.22,1.07,1.94,2.49,2.15,4.24l1-5.61h1.53l-3.33,18.81h-1.56l1-5.61c-.79,1.76-1.99,3.17-3.6,4.24-1.62,1.07-3.45,1.61-5.51,1.61-2.31,0-4.13-.66-5.47-1.98-1.34-1.32-2.01-3.14-2.01-5.47,0-.74.07-1.5.21-2.29.35-1.94,1.03-3.63,2.04-5.07,1.02-1.44,2.27-2.55,3.76-3.33,1.49-.77,3.11-1.16,4.87-1.16,2.06,0,3.69.54,4.92,1.61ZM804.02,546.63c-1.66,1.48-2.71,3.49-3.15,6.03-.12.58-.17,1.25-.17,2.01,0,1.96.56,3.5,1.7,4.61s2.71,1.66,4.75,1.66c1.48,0,2.86-.34,4.16-1.02,1.29-.68,2.38-1.65,3.27-2.91.89-1.26,1.48-2.71,1.78-4.35.12-.69.17-1.3.17-1.84,0-1.96-.59-3.52-1.77-4.68-1.18-1.15-2.75-1.73-4.71-1.73-2.36,0-4.36.74-6.03,2.22Z"/>
    <path class="cls-1" d="M829.1,544.05c1.36-.77,3-1.16,4.92-1.16l-.31,1.7h-.55c-1.89,0-3.58.53-5.06,1.59-1.48,1.06-2.43,2.78-2.84,5.16l-1.91,10.74h-1.56l3.33-18.81h1.56l-.73,4.16c.74-1.48,1.79-2.6,3.15-3.38Z"/>
    <path class="cls-1" d="M873.75,544.42c1.09,1.02,1.63,2.53,1.63,4.54,0,.67-.07,1.39-.21,2.15l-1.97,10.98h-1.52l1.94-10.91c.12-.76.17-1.38.17-1.87,0-1.64-.43-2.89-1.3-3.74-.87-.85-2.08-1.28-3.65-1.28-1.94,0-3.62.65-5.02,1.94-1.41,1.29-2.36,3.19-2.84,5.68l-1.8,10.18h-1.52l1.91-10.91c.12-.58.17-1.22.17-1.94,0-1.62-.43-2.85-1.3-3.69-.87-.84-2.07-1.26-3.62-1.26-1.94,0-3.61.63-5.01,1.89-1.4,1.26-2.34,3.12-2.82,5.59l-1.84,10.32h-1.56l3.33-18.81h1.56l-.87,4.92c.74-1.75,1.81-3.08,3.22-3.97,1.41-.89,2.94-1.33,4.61-1.33s3.09.47,4.16,1.4c1.06.93,1.64,2.33,1.73,4.17.76-1.85,1.88-3.24,3.34-4.17,1.47-.94,3.05-1.4,4.76-1.4,1.8,0,3.24.51,4.33,1.52Z"/>
    <path class="cls-1" d="M896.07,545.04c1.42,1.34,2.13,3.19,2.13,5.54,0,.69-.07,1.42-.21,2.18-.35,1.96-1.05,3.67-2.11,5.11-1.06,1.44-2.36,2.55-3.9,3.31-1.54.76-3.18,1.14-4.94,1.14-2.36,0-4.25-.67-5.68-2.01-1.43-1.34-2.15-3.2-2.15-5.58,0-.67.07-1.39.21-2.15.35-1.94,1.05-3.64,2.11-5.09,1.06-1.45,2.37-2.56,3.91-3.33,1.55-.76,3.2-1.14,4.95-1.14,2.36,0,4.24.67,5.66,2.01ZM886.22,545.32c-1.27.6-2.37,1.52-3.31,2.75-.94,1.24-1.57,2.77-1.89,4.59-.14.72-.21,1.39-.21,2.01,0,2.03.61,3.59,1.84,4.66,1.22,1.07,2.76,1.61,4.61,1.61,1.36,0,2.68-.3,3.95-.9s2.37-1.52,3.31-2.77c.94-1.25,1.56-2.78,1.89-4.61.14-.74.21-1.41.21-2.01,0-2.03-.61-3.58-1.82-4.64-1.21-1.06-2.74-1.59-4.59-1.59-1.38,0-2.71.3-3.98.9Z"/>
    <path class="cls-1" d="M922.76,536.45l-4.54,25.63h-1.56l1-5.61c-.81,1.76-2.02,3.17-3.62,4.24-1.61,1.07-3.44,1.61-5.49,1.61-2.29,0-4.1-.66-5.46-1.99s-2.03-3.16-2.03-5.49c0-.72.07-1.47.21-2.25.35-1.94,1.03-3.63,2.04-5.07,1.02-1.44,2.27-2.55,3.76-3.33,1.49-.77,3.11-1.16,4.87-1.16,2.05,0,3.69.54,4.92,1.61,1.22,1.07,1.94,2.49,2.15,4.24l2.18-12.44h1.56ZM906.03,546.63c-1.66,1.48-2.71,3.49-3.15,6.03-.12.58-.17,1.25-.17,2.01,0,1.96.57,3.5,1.7,4.61,1.13,1.11,2.71,1.66,4.74,1.66,1.48,0,2.86-.34,4.16-1.02s2.38-1.65,3.27-2.91c.89-1.26,1.48-2.71,1.78-4.35.11-.69.17-1.29.17-1.8,0-1.96-.59-3.53-1.77-4.69-1.18-1.17-2.75-1.75-4.71-1.75-2.36,0-4.36.74-6.03,2.22Z"/>
    <path class="cls-1" d="M952.34,545.01c1.34,1.32,2.01,3.13,2.01,5.44,0,.67-.07,1.41-.21,2.22-.35,1.96-1.03,3.68-2.04,5.14-1.02,1.47-2.27,2.59-3.78,3.36-1.5.77-3.13,1.16-4.88,1.16-2.03,0-3.67-.54-4.9-1.61s-1.95-2.49-2.13-4.24l-2.56,14.48h-1.52l4.88-27.68h1.52l-.97,5.61c.81-1.75,2.02-3.17,3.62-4.24,1.61-1.07,3.43-1.61,5.49-1.61,2.31,0,4.13.66,5.47,1.97ZM949.38,558.72c1.65-1.48,2.71-3.5,3.17-6.06.12-.58.17-1.23.17-1.97,0-1.96-.57-3.5-1.7-4.61-1.13-1.11-2.71-1.66-4.74-1.66-1.48,0-2.86.34-4.16,1.02-1.29.68-2.39,1.64-3.27,2.89-.89,1.25-1.47,2.69-1.75,4.33-.12.74-.17,1.36-.17,1.87,0,1.96.59,3.52,1.77,4.68,1.18,1.16,2.74,1.73,4.68,1.73,2.36,0,4.36-.74,6.01-2.22Z"/>
    <path class="cls-1" d="M973.47,544.64c1.22,1.07,1.94,2.49,2.15,4.24l1-5.61h1.53l-3.33,18.81h-1.56l1-5.61c-.79,1.76-1.99,3.17-3.6,4.24-1.62,1.07-3.45,1.61-5.51,1.61-2.31,0-4.13-.66-5.47-1.98-1.34-1.32-2.01-3.14-2.01-5.47,0-.74.07-1.5.21-2.29.35-1.94,1.03-3.63,2.04-5.07,1.02-1.44,2.27-2.55,3.76-3.33,1.49-.77,3.11-1.16,4.87-1.16,2.06,0,3.69.54,4.92,1.61ZM962.63,546.63c-1.66,1.48-2.71,3.49-3.15,6.03-.12.58-.17,1.25-.17,2.01,0,1.96.56,3.5,1.7,4.61s2.71,1.66,4.75,1.66c1.48,0,2.86-.34,4.16-1.02,1.29-.68,2.38-1.65,3.27-2.91.89-1.26,1.48-2.71,1.78-4.35.12-.69.17-1.3.17-1.84,0-1.96-.59-3.52-1.77-4.68-1.18-1.15-2.75-1.73-4.71-1.73-2.36,0-4.36.74-6.03,2.22Z"/>
    <path class="cls-1" d="M987.71,544.05c1.36-.77,3-1.16,4.92-1.16l-.31,1.7h-.55c-1.89,0-3.58.53-5.06,1.59-1.48,1.06-2.43,2.78-2.84,5.16l-1.91,10.74h-1.56l3.33-18.81h1.56l-.73,4.16c.74-1.48,1.79-2.6,3.15-3.38Z"/>
  </g>
  <g>
    <path class="cls-3" d="M448.84,655.49c.45,28.96-9.75,54.3-28.78,76.29-35.91,41.5-95.81,53.15-146.31,28.81-49.76-23.99-78.49-80.66-68.41-134.93,10.39-55.97,55.46-98.78,109.86-103.94,45.15-4.28,85.98,6.76,113.46,44.17,41.42,56.39,99.27,77.02,164.93,83.48,96.09,9.45,189.93-7.11,283.6-25.29,12.77-2.48,25.57-4.82,38.35-7.23.53,1.58,1.06,3.15,1.6,4.73-2.66,2.01-5.04,5.03-8.03,5.9-100.51,29.11-202.02,52.67-307.7,47.04-76.53-4.08-144.42-25.71-193.87-90.97-34.61-45.68-99.85-48.13-142.74-10.28-43.04,37.97-46.65,102.9-8.1,145.35,39.04,42.99,107.42,47.16,148.72,5.93,15.21-15.18,23.36-37.52,34.29-56.84,2.32-4.11,2.73-9.31,4.02-14,1.71.59,3.41,1.18,5.12,1.77Z"/>
    <path class="cls-1" d="M483.42,351.09c5.78,64.94-9.99,120.42-26.17,175.83-1.88-.2-3.75-.41-5.63-.61,4.51-43.8,9.03-87.61,14.05-136.31-48.95,28.22-97.84,35.14-146.99,41.81-21.25,2.88-38.54,15.91-43.65,36.53-9.67,39.03-37.73,49.42-71.96,51.2-14.58.76-20.85,7.35-26.73,19.82-15.48,32.8-32.8,64.74-50.17,98.54,13.09,1.76,30.7,4.13,49.92,6.72-15.55,12.79-44.99,12.97-96.07,2.09.42-1.72.26-4.21,1.34-5,36-26.32,56.57-63.04,68.68-104.69,8.08-27.79,22.32-45.01,53.66-44.89,23.16.09,38.79-9.85,46.45-34.57,9.55-30.81,33.65-48.95,65.59-52.67,57.99-6.76,114.84-16.18,167.71-53.79Z"/>
    <path class="cls-3" d="M483.78,673.4c131.75,47.43,259.99,18.56,390.94-18.75-82.71,53.58-288.56,89.09-390.94,18.75Z"/>
    <path class="cls-3" d="M398.76,635.12c18.81,37.13-7.95,78.79-39.95,90.72-41.83,15.6-88.29-6.2-100.89-48.36-11.63-38.92,9.71-77.66,45.34-86.19-9.29,12.12-21.68,24.72-29.68,39.68-9,16.81-5.82,35.17,3.57,51.83,13.7,24.32,42.1,36.86,69.21,30.88,32.76-7.23,48.28-30.49,52.4-78.55Z"/>
  </g>
  <circle class="cls-1" cx="481.59" cy="322.59" r="21.27"/>
</svg>